<svg xmlns="http://www.w3.org/2000/svg" xmlns:xlink="http://www.w3.org/1999/xlink" width="200" zoomAndPan="magnify" viewBox="0 0 150 48.75" height="65" preserveAspectRatio="xMidYMid meet" version="1.0"><defs><filter x="0%" y="0%" width="100%" height="100%" id="e9588823ea"><feColorMatrix values="0 0 0 0 1 0 0 0 0 1 0 0 0 0 1 0 0 0 1 0" color-interpolation-filters="sRGB"/></filter><g/><clipPath id="57f88948ff"><path d="M 108.648438 8 L 148 8 L 148 45.589844 L 108.648438 45.589844 Z M 108.648438 8 " clip-rule="nonzero"/></clipPath><mask id="285b241ef4"><g filter="url(#e9588823ea)"><rect x="-15" width="180" fill="#000000" y="-4.875" height="58.5" fill-opacity="0.35"/></g></mask><clipPath id="e83ef75f13"><path d="M 0.503906 0.207031 L 29.632812 0.207031 L 29.632812 19.308594 L 0.503906 19.308594 Z M 0.503906 0.207031 " clip-rule="nonzero"/></clipPath><clipPath id="ac60608625"><rect x="0" width="30" y="0" height="20"/></clipPath><clipPath id="0e6eb5aee8"><path d="M 114 0.816406 L 126 0.816406 L 126 12 L 114 12 Z M 114 0.816406 " clip-rule="nonzero"/></clipPath></defs><path fill="#ffffff" d="M 117.355469 17.628906 C 117.355469 21.246094 115.445312 22.101562 113.613281 22.257812 C 111.808594 22.410156 109.203125 21.644531 109.078125 18.273438 C 108.957031 14.902344 110.917969 13.003906 113.1875 13.003906 C 115.207031 13.003906 117.355469 13.859375 117.355469 17.628906 Z M 123.308594 13.171875 C 120.699219 13.171875 118.441406 15.359375 118.582031 19.242188 C 118.722656 23.121094 121.722656 23.484375 123.804688 23.308594 C 125.914062 23.128906 128.109375 22.664062 128.109375 18.5 C 128.109375 14.160156 125.640625 13.171875 123.308594 13.171875 Z M 123.308594 13.171875 " fill-opacity="1" fill-rule="nonzero"/><g clip-path="url(#57f88948ff)"><path fill="#634d9f" d="M 144.628906 41.742188 C 141.703125 41.417969 141.253906 39.789062 140.558594 38.246094 C 139.289062 35.425781 136.167969 37.871094 135.480469 35.382812 C 135.007812 33.6875 135.480469 27.015625 135.480469 22.550781 C 135.480469 18.085938 133.300781 8.175781 123.28125 8.175781 C 121.023438 8.175781 117.292969 9.335938 114.335938 12.753906 C 113.953125 12.683594 113.5625 12.65625 113.1875 12.65625 C 112.035156 12.65625 110.960938 13.109375 110.164062 13.9375 C 109.464844 14.660156 108.648438 16.003906 108.730469 18.285156 C 108.78125 19.695312 109.246094 20.792969 110.105469 21.554688 C 110.171875 21.613281 110.238281 21.671875 110.308594 21.722656 C 110.207031 22.277344 109.949219 23.617188 109.886719 24.96875 C 109.230469 38.585938 110.320312 45.664062 123.824219 45.554688 C 137.332031 45.445312 146.261719 45.007812 147.023438 45.007812 C 148.710938 45.007812 148.0625 42.125 144.628906 41.742188 Z M 110.460938 20.9375 C 109.816406 20.308594 109.46875 19.410156 109.425781 18.261719 C 109.367188 16.648438 109.796875 15.320312 110.664062 14.417969 C 111.328125 13.730469 112.222656 13.351562 113.1875 13.351562 C 113.410156 13.351562 113.621094 13.363281 113.824219 13.382812 C 112.371094 15.253906 111.15625 17.726562 110.460938 20.9375 Z M 123.742188 23.128906 C 121.933594 23.28125 119.332031 22.515625 119.207031 19.144531 C 119.085938 15.773438 121.046875 13.875 123.3125 13.875 C 125.335938 13.875 127.480469 14.730469 127.480469 18.5 C 127.480469 22.117188 125.574219 22.972656 123.742188 23.128906 Z M 123.742188 23.128906 " fill-opacity="1" fill-rule="nonzero"/></g><g mask="url(#285b241ef4)"><g transform="matrix(1, 0, 0, 1, 109, 22)"><g clip-path="url(#ac60608625)"><g clip-path="url(#e83ef75f13)"><path fill="#2e2767" d="M 26.269531 9.09375 C 26.269531 9.09375 22.878906 8.449219 23.136719 4.464844 C 23.394531 0.480469 26.480469 0.550781 26.480469 0.550781 C 26.394531 4.878906 26.269531 9.09375 26.269531 9.09375 Z M 22.460938 8.621094 C 21.542969 6.808594 18.171875 8.054688 19.082031 10.554688 C 19.988281 13.050781 23.96875 11.589844 22.460938 8.621094 Z M 1.820312 16.746094 C 1.820312 16.746094 6.03125 15.605469 5.175781 11.640625 C 4.394531 8.003906 0.742188 8.550781 0.742188 8.550781 C 0.742188 14.296875 1.820312 16.746094 1.820312 16.746094 Z M 7.429688 14.101562 C 6.394531 14.101562 5.859375 14.964844 5.910156 16.199219 C 5.976562 17.980469 9.054688 17.785156 9.167969 16.199219 C 9.25 15.019531 8.8125 14.101562 7.429688 14.101562 Z M 27.847656 16.207031 C 26.917969 16.207031 26.4375 16.980469 26.480469 18.09375 C 26.542969 19.691406 29.308594 19.519531 29.410156 18.09375 C 29.484375 17.03125 29.089844 16.207031 27.847656 16.207031 Z M 27.847656 16.207031 " fill-opacity="1" fill-rule="nonzero"/></g></g></g></g><g clip-path="url(#0e6eb5aee8)"><path fill="#2e2767" d="M 117.925781 3.785156 C 118.023438 3.601562 118.066406 3.40625 118.058594 3.195312 C 118.039062 3.058594 118.019531 2.921875 118.003906 2.789062 C 117.929688 2.527344 117.800781 2.304688 117.609375 2.113281 C 117.507812 2.03125 117.402344 1.953125 117.300781 1.875 C 117.0625 1.734375 116.804688 1.664062 116.527344 1.664062 C 116.511719 1.664062 116.496094 1.664062 116.480469 1.664062 C 116.269531 1.65625 116.074219 1.699219 115.890625 1.796875 C 115.703125 1.859375 115.539062 1.964844 115.398438 2.113281 C 115.25 2.25 115.144531 2.414062 115.082031 2.605469 C 114.988281 2.789062 114.941406 2.984375 114.949219 3.195312 C 114.96875 3.332031 114.988281 3.464844 115.003906 3.601562 C 115.078125 3.859375 115.210938 4.085938 115.398438 4.277344 C 115.503906 4.355469 115.605469 4.4375 115.710938 4.515625 C 115.949219 4.65625 116.207031 4.726562 116.480469 4.726562 C 116.496094 4.726562 116.511719 4.726562 116.527344 4.726562 C 116.738281 4.734375 116.933594 4.691406 117.117188 4.59375 C 117.125 4.589844 117.132812 4.585938 117.140625 4.585938 C 118.328125 5.816406 119.1875 7.3125 119.648438 8.9375 C 119.9375 8.832031 120.246094 8.734375 120.566406 8.617188 C 120.058594 6.871094 119.140625 5.265625 117.867188 3.933594 C 117.890625 3.882812 117.910156 3.835938 117.925781 3.785156 Z M 116.464844 3.800781 C 116.089844 3.800781 115.785156 3.496094 115.785156 3.117188 C 115.785156 2.742188 116.089844 2.4375 116.464844 2.4375 C 116.839844 2.4375 117.144531 2.742188 117.144531 3.117188 C 117.144531 3.496094 116.839844 3.800781 116.464844 3.800781 Z M 125.277344 3.644531 C 126.296875 2.898438 126.007812 0.855469 124.394531 0.855469 C 122.441406 0.855469 122.421875 3.855469 124.339844 3.914062 C 124.695312 5.058594 124.898438 6.234375 124.914062 7.4375 C 124.929688 8.632812 124.855469 10.023438 124.316406 11.109375 C 124.035156 11.671875 124.875 12.164062 125.15625 11.601562 C 125.742188 10.421875 125.878906 8.996094 125.886719 7.691406 C 125.898438 6.320312 125.679688 4.957031 125.277344 3.644531 Z M 124.402344 3.117188 C 124.019531 3.117188 123.710938 2.808594 123.710938 2.429688 C 123.710938 2.046875 124.019531 1.738281 124.402344 1.738281 C 124.78125 1.738281 125.09375 2.046875 125.09375 2.429688 C 125.09375 2.808594 124.78125 3.117188 124.402344 3.117188 Z M 124.402344 3.117188 " fill-opacity="1" fill-rule="nonzero"/></g><path fill="#1a1448" d="M 125.339844 19.777344 C 124.972656 22.0625 121.601562 22.410156 121.292969 19.777344 C 120.988281 17.144531 122.089844 16.039062 123.378906 16.039062 C 125.09375 16.039062 125.707031 17.492188 125.339844 19.777344 Z M 110.8125 19.527344 C 111.324219 17.71875 112.011719 16.171875 112.8125 14.855469 C 112.742188 14.851562 112.671875 14.847656 112.597656 14.847656 C 111.308594 14.847656 110.207031 15.953125 110.511719 18.585938 C 110.554688 18.960938 110.664062 19.273438 110.8125 19.527344 Z M 110.8125 19.527344 " fill-opacity="1" fill-rule="nonzero"/><path fill="#2e2767" d="M 130.328125 38.917969 C 130.320312 38.945312 130.3125 38.96875 130.304688 38.992188 C 130.652344 39.117188 130.972656 39.179688 130.964844 39.457031 C 130.957031 39.660156 130.648438 39.929688 130.257812 39.910156 C 130.050781 39.902344 129.832031 39.835938 129.640625 39.765625 C 129.828125 39.9375 129.964844 40.089844 129.875 40.28125 C 129.789062 40.464844 129.402344 40.589844 129.046875 40.417969 C 128.832031 40.316406 128.628906 40.136719 128.472656 39.980469 C 127.390625 39.898438 126.386719 39.121094 125.761719 38.277344 C 125.332031 37.699219 125.027344 37.035156 124.765625 36.367188 C 124.488281 35.648438 124.265625 34.910156 124.097656 34.15625 C 123.761719 32.648438 123.648438 31.085938 123.769531 29.542969 C 123.78125 29.386719 123.890625 29.25 124.058594 29.25 C 124.210938 29.25 124.363281 29.386719 124.351562 29.542969 C 124.226562 31.15625 124.355469 32.78125 124.742188 34.351562 C 124.914062 35.046875 125.132812 35.730469 125.402344 36.390625 C 125.648438 37 125.957031 37.609375 126.375 38.121094 C 126.761719 38.59375 127.253906 39.007812 127.832031 39.222656 C 128.328125 39.410156 128.941406 39.5 129.417969 39.214844 C 129.953125 38.890625 129.8125 38.242188 129.589844 37.761719 C 129.449219 37.457031 129.277344 37.171875 129.121094 36.875 C 128.953125 36.558594 128.796875 36.230469 128.65625 35.898438 C 128.105469 34.59375 127.773438 33.210938 127.667969 31.796875 C 127.65625 31.636719 127.808594 31.503906 127.960938 31.503906 C 128.125 31.503906 128.238281 31.636719 128.25 31.796875 C 128.375 33.460938 128.84375 35.101562 129.625 36.582031 C 129.855469 37.015625 130.148438 37.46875 130.292969 37.953125 C 130.328125 37.960938 130.363281 37.964844 130.390625 37.964844 C 130.816406 37.984375 131.21875 37.878906 131.320312 38.179688 C 131.382812 38.371094 131.183594 38.726562 130.808594 38.847656 C 130.660156 38.894531 130.492188 38.914062 130.328125 38.917969 Z M 114.722656 20.230469 C 114.617188 20.605469 114.292969 20.96875 113.910156 20.984375 C 113.820312 20.988281 113.742188 20.972656 113.683594 20.941406 C 113.578125 20.894531 113.527344 20.851562 113.453125 20.761719 C 113.34375 20.632812 113.285156 20.445312 113.289062 20.265625 C 113.296875 19.964844 112.832031 19.964844 112.820312 20.265625 C 112.804688 20.855469 113.265625 21.457031 113.882812 21.453125 C 114.507812 21.449219 115.011719 20.929688 115.175781 20.355469 C 115.257812 20.066406 114.808594 19.941406 114.722656 20.230469 Z M 114.722656 20.230469 " fill-opacity="1" fill-rule="nonzero"/><g fill="#000000" fill-opacity="1"><g transform="translate(2.672352, 38.931116)"><g><path d="M 8.5625 -14.015625 C 8.082031 -14.585938 7.5 -15.390625 6.8125 -16.421875 C 6.070312 -17.421875 5.367188 -18.484375 4.703125 -19.609375 C 4.410156 -19.992188 4.144531 -20.253906 3.90625 -20.390625 C 3.59375 -20.460938 3.269531 -20.488281 2.9375 -20.46875 C 2.53125 -20.394531 2.234375 -20.25 2.046875 -20.03125 C 1.847656 -19.820312 1.75 -19.367188 1.75 -18.671875 C 1.75 -17.359375 1.75 -16.09375 1.75 -14.875 C 1.75 -13.65625 1.765625 -12.484375 1.796875 -11.359375 C 1.796875 -9.085938 1.722656 -6.816406 1.578125 -4.546875 C 1.503906 -4.140625 1.539062 -3.757812 1.6875 -3.40625 C 1.757812 -3.019531 2.046875 -2.816406 2.546875 -2.796875 C 2.898438 -2.722656 3.195312 -2.816406 3.4375 -3.078125 C 3.632812 -3.296875 3.78125 -3.617188 3.875 -4.046875 C 3.914062 -4.265625 3.960938 -4.535156 4.015625 -4.859375 C 4.066406 -5.179688 4.113281 -5.535156 4.15625 -5.921875 C 4.207031 -6.296875 4.253906 -6.695312 4.296875 -7.125 C 4.347656 -7.5625 4.394531 -8.019531 4.4375 -8.5 C 4.488281 -8.976562 4.53125 -9.460938 4.5625 -9.953125 C 4.601562 -10.441406 4.632812 -10.945312 4.65625 -11.46875 L 4.765625 -14.4375 L 7.3125 -11.296875 C 7.425781 -11.128906 7.554688 -10.984375 7.703125 -10.859375 C 7.847656 -10.742188 7.992188 -10.625 8.140625 -10.5 C 8.378906 -10.257812 8.664062 -10.140625 9 -10.140625 C 9.3125 -10.140625 9.597656 -10.238281 9.859375 -10.4375 C 10.003906 -10.53125 10.140625 -10.632812 10.265625 -10.75 C 10.398438 -10.875 10.539062 -11.019531 10.6875 -11.1875 L 12.296875 -13.1875 L 13.6875 -15.15625 C 13.6875 -14.25 13.691406 -13.335938 13.703125 -12.421875 C 13.722656 -11.503906 13.734375 -10.578125 13.734375 -9.640625 C 13.679688 -7.753906 13.570312 -6.007812 13.40625 -4.40625 C 13.257812 -3.425781 13.570312 -2.863281 14.34375 -2.71875 C 14.75 -2.644531 15.070312 -2.742188 15.3125 -3.015625 C 15.539062 -3.253906 15.707031 -3.613281 15.8125 -4.09375 C 16.019531 -5.40625 16.179688 -6.703125 16.296875 -7.984375 C 16.421875 -9.273438 16.5 -10.546875 16.53125 -11.796875 C 16.53125 -13.035156 16.503906 -14.273438 16.453125 -15.515625 C 16.398438 -16.765625 16.335938 -18.007812 16.265625 -19.25 C 16.203125 -19.75 16.085938 -20.09375 15.921875 -20.28125 C 15.703125 -20.5 15.4375 -20.644531 15.125 -20.71875 C 14.4375 -20.863281 13.835938 -20.539062 13.328125 -19.75 C 13.023438 -19.226562 12.703125 -18.703125 12.359375 -18.171875 C 12.023438 -17.648438 11.691406 -17.132812 11.359375 -16.625 C 11.003906 -16.101562 10.664062 -15.617188 10.34375 -15.171875 C 10.019531 -14.734375 9.710938 -14.347656 9.421875 -14.015625 C 9.210938 -13.773438 9.070312 -13.65625 9 -13.65625 C 8.875 -13.65625 8.726562 -13.773438 8.5625 -14.015625 Z M 8.5625 -14.015625 "/></g></g></g><g fill="#000000" fill-opacity="1"><g transform="translate(20.944619, 38.931116)"><g><path d="M 3.796875 -3.90625 C 3.921875 -4.476562 4.066406 -5.039062 4.234375 -5.59375 C 4.304688 -5.875 4.382812 -6.164062 4.46875 -6.46875 C 4.550781 -6.769531 4.640625 -7.078125 4.734375 -7.390625 C 5.234375 -7.285156 5.738281 -7.207031 6.25 -7.15625 C 6.769531 -7.113281 7.28125 -7.09375 7.78125 -7.09375 C 8.28125 -7.070312 8.78125 -7.070312 9.28125 -7.09375 C 9.78125 -7.125 10.28125 -7.148438 10.78125 -7.171875 C 10.882812 -6.859375 10.976562 -6.550781 11.0625 -6.25 C 11.144531 -5.957031 11.234375 -5.664062 11.328125 -5.375 C 11.472656 -4.800781 11.613281 -4.300781 11.75 -3.875 C 11.894531 -3.300781 12.097656 -2.914062 12.359375 -2.71875 C 12.597656 -2.476562 12.972656 -2.410156 13.484375 -2.515625 C 14.242188 -2.648438 14.503906 -3.351562 14.265625 -4.625 C 13.972656 -5.914062 13.671875 -7.179688 13.359375 -8.421875 C 13.054688 -9.660156 12.738281 -10.867188 12.40625 -12.046875 C 12.039062 -13.234375 11.65625 -14.421875 11.25 -15.609375 C 10.84375 -16.796875 10.398438 -17.984375 9.921875 -19.171875 C 9.804688 -19.441406 9.691406 -19.679688 9.578125 -19.890625 C 9.472656 -20.109375 9.363281 -20.289062 9.25 -20.4375 C 9.007812 -20.675781 8.695312 -20.828125 8.3125 -20.890625 C 7.8125 -20.941406 7.453125 -20.859375 7.234375 -20.640625 C 7.097656 -20.546875 6.960938 -20.410156 6.828125 -20.234375 C 6.691406 -20.054688 6.554688 -19.847656 6.421875 -19.609375 C 5.890625 -18.796875 5.382812 -17.78125 4.90625 -16.5625 C 4.644531 -15.914062 4.390625 -15.253906 4.140625 -14.578125 C 3.890625 -13.910156 3.632812 -13.234375 3.375 -12.546875 C 3.132812 -11.828125 2.894531 -11.113281 2.65625 -10.40625 C 2.414062 -9.707031 2.195312 -9.007812 2 -8.3125 C 1.789062 -7.59375 1.613281 -6.925781 1.46875 -6.3125 C 1.320312 -5.707031 1.203125 -5.132812 1.109375 -4.59375 C 1.035156 -4.300781 1 -4.023438 1 -3.765625 C 1 -3.503906 1.015625 -3.265625 1.046875 -3.046875 C 1.066406 -2.566406 1.335938 -2.269531 1.859375 -2.15625 C 2.796875 -1.9375 3.441406 -2.519531 3.796875 -3.90625 Z M 7.84375 -16.171875 L 8.921875 -13.078125 C 9.117188 -12.535156 9.300781 -11.988281 9.46875 -11.4375 C 9.632812 -10.882812 9.800781 -10.332031 9.96875 -9.78125 C 9.582031 -9.78125 9.203125 -9.78125 8.828125 -9.78125 C 8.460938 -9.78125 8.101562 -9.796875 7.75 -9.828125 L 5.515625 -9.828125 C 5.679688 -10.367188 5.851562 -10.910156 6.03125 -11.453125 C 6.21875 -11.992188 6.414062 -12.523438 6.625 -13.046875 C 6.820312 -13.597656 7.019531 -14.128906 7.21875 -14.640625 C 7.425781 -15.148438 7.632812 -15.660156 7.84375 -16.171875 Z M 7.84375 -16.171875 "/></g></g></g><g fill="#000000" fill-opacity="1"><g transform="translate(36.350648, 38.931116)"><g><path d="M 10.171875 -2.90625 C 10.390625 -2.519531 10.644531 -2.21875 10.9375 -2 C 11.175781 -1.789062 11.546875 -1.789062 12.046875 -2 C 12.785156 -2.3125 13 -2.898438 12.6875 -3.765625 L 11.65625 -6.234375 C 11.476562 -6.640625 11.300781 -7.039062 11.125 -7.4375 C 10.945312 -7.832031 10.785156 -8.242188 10.640625 -8.671875 C 11.316406 -9.148438 11.867188 -9.867188 12.296875 -10.828125 C 12.703125 -11.679688 12.878906 -12.769531 12.828125 -14.09375 C 12.804688 -14.519531 12.753906 -14.921875 12.671875 -15.296875 C 12.585938 -15.679688 12.472656 -16.03125 12.328125 -16.34375 C 12.015625 -16.96875 11.617188 -17.519531 11.140625 -18 C 10.617188 -18.445312 10.0625 -18.789062 9.46875 -19.03125 C 8.820312 -19.25 8.175781 -19.394531 7.53125 -19.46875 C 7.238281 -19.488281 6.960938 -19.492188 6.703125 -19.484375 C 6.441406 -19.472656 6.179688 -19.441406 5.921875 -19.390625 C 5.648438 -19.316406 5.390625 -19.242188 5.140625 -19.171875 C 4.890625 -19.097656 4.65625 -19.015625 4.4375 -18.921875 C 4.226562 -19.253906 3.929688 -19.4375 3.546875 -19.46875 C 3.140625 -19.46875 2.828125 -19.347656 2.609375 -19.109375 C 2.347656 -18.816406 2.207031 -18.363281 2.1875 -17.75 C 1.96875 -15.28125 1.859375 -12.890625 1.859375 -10.578125 C 1.816406 -8.234375 1.710938 -5.878906 1.546875 -3.515625 C 1.398438 -2.273438 1.851562 -1.65625 2.90625 -1.65625 C 3.425781 -1.65625 3.785156 -1.785156 3.984375 -2.046875 C 4.191406 -2.253906 4.332031 -2.71875 4.40625 -3.4375 C 4.425781 -3.726562 4.445312 -4.046875 4.46875 -4.390625 C 4.5 -4.734375 4.523438 -5.097656 4.546875 -5.484375 C 4.546875 -5.867188 4.550781 -6.269531 4.5625 -6.6875 C 4.582031 -7.101562 4.601562 -7.539062 4.625 -8 C 5.582031 -7.59375 6.515625 -7.421875 7.421875 -7.484375 C 7.515625 -7.484375 7.597656 -7.5 7.671875 -7.53125 L 7.921875 -7.53125 C 8.617188 -5.875 9.367188 -4.332031 10.171875 -2.90625 Z M 6.0625 -16.84375 C 7.1875 -16.769531 8.054688 -16.492188 8.671875 -16.015625 C 9.265625 -15.492188 9.597656 -14.695312 9.671875 -13.625 C 9.722656 -12.425781 9.5 -11.550781 9 -11 C 8.46875 -10.40625 7.710938 -10.082031 6.734375 -10.03125 C 6.453125 -9.988281 6.144531 -9.988281 5.8125 -10.03125 C 5.425781 -10.03125 5.054688 -10.066406 4.703125 -10.140625 C 4.703125 -10.765625 4.707031 -11.375 4.71875 -11.96875 C 4.726562 -12.570312 4.742188 -13.171875 4.765625 -13.765625 L 4.765625 -16.78125 C 4.890625 -16.800781 5.007812 -16.816406 5.125 -16.828125 C 5.25 -16.835938 5.359375 -16.84375 5.453125 -16.84375 Z M 6.0625 -16.84375 "/></g></g></g><g fill="#000000" fill-opacity="1"><g transform="translate(50.681832, 38.931116)"><g><path d="M 9.78125 -4.265625 C 9.8125 -4.648438 9.71875 -5 9.5 -5.3125 C 9.238281 -5.570312 8.914062 -5.738281 8.53125 -5.8125 C 8.363281 -5.832031 8.179688 -5.851562 7.984375 -5.875 C 7.796875 -5.90625 7.597656 -5.929688 7.390625 -5.953125 C 7.171875 -5.972656 6.945312 -5.988281 6.71875 -6 C 6.488281 -6.007812 6.253906 -6.015625 6.015625 -6.015625 C 6.066406 -6.859375 6.117188 -7.707031 6.171875 -8.5625 C 6.234375 -9.425781 6.28125 -10.300781 6.3125 -11.1875 C 6.332031 -12.09375 6.351562 -12.972656 6.375 -13.828125 C 6.40625 -14.691406 6.429688 -15.53125 6.453125 -16.34375 L 6.453125 -16.53125 C 6.617188 -16.5 6.785156 -16.484375 6.953125 -16.484375 C 7.117188 -16.484375 7.285156 -16.484375 7.453125 -16.484375 C 7.617188 -16.460938 7.785156 -16.453125 7.953125 -16.453125 C 8.117188 -16.453125 8.285156 -16.453125 8.453125 -16.453125 C 8.960938 -16.398438 9.3125 -16.472656 9.5 -16.671875 C 9.613281 -16.785156 9.707031 -17.023438 9.78125 -17.390625 C 9.8125 -17.765625 9.71875 -18.109375 9.5 -18.421875 C 9.238281 -18.679688 8.914062 -18.847656 8.53125 -18.921875 C 8.3125 -18.972656 8.070312 -19.007812 7.8125 -19.03125 C 7.550781 -19.050781 7.273438 -19.078125 6.984375 -19.109375 C 6.679688 -19.109375 6.378906 -19.113281 6.078125 -19.125 C 5.773438 -19.132812 5.484375 -19.140625 5.203125 -19.140625 C 4.890625 -19.117188 4.582031 -19.097656 4.28125 -19.078125 C 3.976562 -19.066406 3.6875 -19.050781 3.40625 -19.03125 C 3.113281 -19.007812 2.847656 -18.976562 2.609375 -18.9375 C 2.378906 -18.90625 2.164062 -18.863281 1.96875 -18.8125 C 1.394531 -18.675781 1.070312 -18.460938 1 -18.171875 C 0.851562 -17.816406 0.816406 -17.484375 0.890625 -17.171875 C 0.992188 -16.429688 1.453125 -16.128906 2.265625 -16.265625 C 2.378906 -16.296875 2.5 -16.316406 2.625 -16.328125 C 2.757812 -16.335938 2.898438 -16.351562 3.046875 -16.375 C 3.160156 -16.375 3.285156 -16.378906 3.421875 -16.390625 C 3.554688 -16.410156 3.691406 -16.429688 3.828125 -16.453125 C 3.691406 -14.679688 3.585938 -12.910156 3.515625 -11.140625 C 3.441406 -10.265625 3.375 -9.394531 3.3125 -8.53125 C 3.25 -7.664062 3.1875 -6.804688 3.125 -5.953125 C 3.019531 -5.929688 2.914062 -5.910156 2.8125 -5.890625 C 2.707031 -5.878906 2.609375 -5.875 2.515625 -5.875 C 2.296875 -5.851562 2.113281 -5.816406 1.96875 -5.765625 C 1.394531 -5.628906 1.070312 -5.414062 1 -5.125 C 0.851562 -4.769531 0.816406 -4.4375 0.890625 -4.125 C 0.960938 -3.382812 1.421875 -3.082031 2.265625 -3.21875 C 3.304688 -3.363281 4.34375 -3.4375 5.375 -3.4375 L 8.453125 -3.328125 C 8.960938 -3.285156 9.3125 -3.359375 9.5 -3.546875 C 9.613281 -3.671875 9.707031 -3.910156 9.78125 -4.265625 Z M 9.78125 -4.265625 "/></g></g></g><g fill="#000000" fill-opacity="1"><g transform="translate(61.39439, 38.931116)"><g><path d="M 3.796875 -3.90625 C 3.921875 -4.476562 4.066406 -5.039062 4.234375 -5.59375 C 4.304688 -5.875 4.382812 -6.164062 4.46875 -6.46875 C 4.550781 -6.769531 4.640625 -7.078125 4.734375 -7.390625 C 5.234375 -7.285156 5.738281 -7.207031 6.25 -7.15625 C 6.769531 -7.113281 7.28125 -7.09375 7.78125 -7.09375 C 8.28125 -7.070312 8.78125 -7.070312 9.28125 -7.09375 C 9.78125 -7.125 10.28125 -7.148438 10.78125 -7.171875 C 10.882812 -6.859375 10.976562 -6.550781 11.0625 -6.25 C 11.144531 -5.957031 11.234375 -5.664062 11.328125 -5.375 C 11.472656 -4.800781 11.613281 -4.300781 11.75 -3.875 C 11.894531 -3.300781 12.097656 -2.914062 12.359375 -2.71875 C 12.597656 -2.476562 12.972656 -2.410156 13.484375 -2.515625 C 14.242188 -2.648438 14.503906 -3.351562 14.265625 -4.625 C 13.972656 -5.914062 13.671875 -7.179688 13.359375 -8.421875 C 13.054688 -9.660156 12.738281 -10.867188 12.40625 -12.046875 C 12.039062 -13.234375 11.65625 -14.421875 11.25 -15.609375 C 10.84375 -16.796875 10.398438 -17.984375 9.921875 -19.171875 C 9.804688 -19.441406 9.691406 -19.679688 9.578125 -19.890625 C 9.472656 -20.109375 9.363281 -20.289062 9.25 -20.4375 C 9.007812 -20.675781 8.695312 -20.828125 8.3125 -20.890625 C 7.8125 -20.941406 7.453125 -20.859375 7.234375 -20.640625 C 7.097656 -20.546875 6.960938 -20.410156 6.828125 -20.234375 C 6.691406 -20.054688 6.554688 -19.847656 6.421875 -19.609375 C 5.890625 -18.796875 5.382812 -17.78125 4.90625 -16.5625 C 4.644531 -15.914062 4.390625 -15.253906 4.140625 -14.578125 C 3.890625 -13.910156 3.632812 -13.234375 3.375 -12.546875 C 3.132812 -11.828125 2.894531 -11.113281 2.65625 -10.40625 C 2.414062 -9.707031 2.195312 -9.007812 2 -8.3125 C 1.789062 -7.59375 1.613281 -6.925781 1.46875 -6.3125 C 1.320312 -5.707031 1.203125 -5.132812 1.109375 -4.59375 C 1.035156 -4.300781 1 -4.023438 1 -3.765625 C 1 -3.503906 1.015625 -3.265625 1.046875 -3.046875 C 1.066406 -2.566406 1.335938 -2.269531 1.859375 -2.15625 C 2.796875 -1.9375 3.441406 -2.519531 3.796875 -3.90625 Z M 7.84375 -16.171875 L 8.921875 -13.078125 C 9.117188 -12.535156 9.300781 -11.988281 9.46875 -11.4375 C 9.632812 -10.882812 9.800781 -10.332031 9.96875 -9.78125 C 9.582031 -9.78125 9.203125 -9.78125 8.828125 -9.78125 C 8.460938 -9.78125 8.101562 -9.796875 7.75 -9.828125 L 5.515625 -9.828125 C 5.679688 -10.367188 5.851562 -10.910156 6.03125 -11.453125 C 6.21875 -11.992188 6.414062 -12.523438 6.625 -13.046875 C 6.820312 -13.597656 7.019531 -14.128906 7.21875 -14.640625 C 7.425781 -15.148438 7.632812 -15.660156 7.84375 -16.171875 Z M 7.84375 -16.171875 "/></g></g></g><g fill="#000000" fill-opacity="1"><g transform="translate(76.800419, 38.931116)"><g><path d="M 15.015625 -17.453125 L 14.90625 -18.09375 C 14.882812 -18.195312 14.847656 -18.289062 14.796875 -18.375 C 14.753906 -18.457031 14.707031 -18.546875 14.65625 -18.640625 C 14.507812 -18.804688 14.34375 -18.914062 14.15625 -18.96875 C 14.0625 -19.007812 13.941406 -19.03125 13.796875 -19.03125 C 13.648438 -19.03125 13.484375 -19.03125 13.296875 -19.03125 C 13.128906 -19.007812 12.972656 -18.972656 12.828125 -18.921875 C 12.679688 -18.878906 12.578125 -18.820312 12.515625 -18.75 C 12.316406 -18.625 12.179688 -18.441406 12.109375 -18.203125 C 12.015625 -18.015625 11.96875 -17.789062 11.96875 -17.53125 L 11.96875 -16.8125 C 12.019531 -16.019531 12.050781 -15.234375 12.0625 -14.453125 C 12.070312 -13.679688 12.085938 -12.914062 12.109375 -12.15625 C 12.109375 -11.382812 12.097656 -10.613281 12.078125 -9.84375 C 12.054688 -9.082031 12.019531 -8.320312 11.96875 -7.5625 C 11.707031 -7.988281 11.4375 -8.425781 11.15625 -8.875 C 10.882812 -9.332031 10.617188 -9.800781 10.359375 -10.28125 C 10.066406 -10.757812 9.785156 -11.238281 9.515625 -11.71875 C 9.242188 -12.195312 8.972656 -12.675781 8.703125 -13.15625 C 8.441406 -13.632812 8.1875 -14.097656 7.9375 -14.546875 C 7.6875 -15.003906 7.453125 -15.460938 7.234375 -15.921875 C 6.992188 -16.347656 6.785156 -16.765625 6.609375 -17.171875 C 6.429688 -17.578125 6.269531 -17.972656 6.125 -18.359375 C 6.03125 -18.566406 5.914062 -18.773438 5.78125 -18.984375 C 5.65625 -19.203125 5.519531 -19.398438 5.375 -19.578125 C 5.039062 -19.910156 4.632812 -20.039062 4.15625 -19.96875 C 3.65625 -19.894531 3.332031 -19.664062 3.1875 -19.28125 C 3.019531 -18.894531 2.863281 -18.382812 2.71875 -17.75 C 2.644531 -17.4375 2.570312 -17.078125 2.5 -16.671875 C 2.4375 -16.265625 2.378906 -15.785156 2.328125 -15.234375 C 2.253906 -14.703125 2.1875 -14.148438 2.125 -13.578125 C 2.070312 -13.003906 2.019531 -12.421875 1.96875 -11.828125 C 1.894531 -11.234375 1.835938 -10.632812 1.796875 -10.03125 C 1.765625 -9.4375 1.726562 -8.863281 1.6875 -8.3125 C 1.613281 -7.164062 1.578125 -6.25 1.578125 -5.5625 C 1.578125 -4.03125 2.066406 -3.226562 3.046875 -3.15625 C 3.472656 -3.082031 3.867188 -3.222656 4.234375 -3.578125 C 4.515625 -3.921875 4.65625 -4.4375 4.65625 -5.125 C 4.65625 -5.3125 4.65625 -5.535156 4.65625 -5.796875 C 4.65625 -6.066406 4.671875 -6.378906 4.703125 -6.734375 C 4.703125 -7.066406 4.707031 -7.421875 4.71875 -7.796875 C 4.726562 -8.171875 4.742188 -8.570312 4.765625 -9 C 4.785156 -9.40625 4.8125 -9.820312 4.84375 -10.25 C 4.882812 -10.675781 4.921875 -11.117188 4.953125 -11.578125 L 5.15625 -14.125 C 5.425781 -13.625 5.695312 -13.113281 5.96875 -12.59375 C 6.238281 -12.082031 6.53125 -11.566406 6.84375 -11.046875 C 7.132812 -10.515625 7.425781 -9.988281 7.71875 -9.46875 C 8.019531 -8.957031 8.316406 -8.46875 8.609375 -8 C 9.148438 -6.96875 9.660156 -6.09375 10.140625 -5.375 C 10.566406 -4.632812 10.960938 -4.050781 11.328125 -3.625 C 11.515625 -3.289062 11.773438 -3.003906 12.109375 -2.765625 C 12.378906 -2.492188 12.726562 -2.382812 13.15625 -2.4375 C 13.632812 -2.4375 13.976562 -2.675781 14.1875 -3.15625 C 14.257812 -3.375 14.335938 -3.625 14.421875 -3.90625 C 14.503906 -4.195312 14.597656 -4.53125 14.703125 -4.90625 C 14.816406 -5.382812 14.910156 -5.875 14.984375 -6.375 C 15.054688 -6.882812 15.113281 -7.398438 15.15625 -7.921875 C 15.207031 -8.472656 15.238281 -9.015625 15.25 -9.546875 C 15.257812 -10.085938 15.28125 -10.644531 15.3125 -11.21875 C 15.3125 -11.769531 15.300781 -12.316406 15.28125 -12.859375 C 15.269531 -13.410156 15.253906 -13.953125 15.234375 -14.484375 C 15.210938 -15.035156 15.179688 -15.554688 15.140625 -16.046875 C 15.109375 -16.535156 15.066406 -17.003906 15.015625 -17.453125 Z M 15.015625 -17.453125 "/></g></g></g><g fill="#000000" fill-opacity="1"><g transform="translate(93.639567, 38.931116)"><g><path d="M 3.796875 -3.90625 C 3.921875 -4.476562 4.066406 -5.039062 4.234375 -5.59375 C 4.304688 -5.875 4.382812 -6.164062 4.46875 -6.46875 C 4.550781 -6.769531 4.640625 -7.078125 4.734375 -7.390625 C 5.234375 -7.285156 5.738281 -7.207031 6.25 -7.15625 C 6.769531 -7.113281 7.28125 -7.09375 7.78125 -7.09375 C 8.28125 -7.070312 8.78125 -7.070312 9.28125 -7.09375 C 9.78125 -7.125 10.28125 -7.148438 10.78125 -7.171875 C 10.882812 -6.859375 10.976562 -6.550781 11.0625 -6.25 C 11.144531 -5.957031 11.234375 -5.664062 11.328125 -5.375 C 11.472656 -4.800781 11.613281 -4.300781 11.75 -3.875 C 11.894531 -3.300781 12.097656 -2.914062 12.359375 -2.71875 C 12.597656 -2.476562 12.972656 -2.410156 13.484375 -2.515625 C 14.242188 -2.648438 14.503906 -3.351562 14.265625 -4.625 C 13.972656 -5.914062 13.671875 -7.179688 13.359375 -8.421875 C 13.054688 -9.660156 12.738281 -10.867188 12.40625 -12.046875 C 12.039062 -13.234375 11.65625 -14.421875 11.25 -15.609375 C 10.84375 -16.796875 10.398438 -17.984375 9.921875 -19.171875 C 9.804688 -19.441406 9.691406 -19.679688 9.578125 -19.890625 C 9.472656 -20.109375 9.363281 -20.289062 9.25 -20.4375 C 9.007812 -20.675781 8.695312 -20.828125 8.3125 -20.890625 C 7.8125 -20.941406 7.453125 -20.859375 7.234375 -20.640625 C 7.097656 -20.546875 6.960938 -20.410156 6.828125 -20.234375 C 6.691406 -20.054688 6.554688 -19.847656 6.421875 -19.609375 C 5.890625 -18.796875 5.382812 -17.78125 4.90625 -16.5625 C 4.644531 -15.914062 4.390625 -15.253906 4.140625 -14.578125 C 3.890625 -13.910156 3.632812 -13.234375 3.375 -12.546875 C 3.132812 -11.828125 2.894531 -11.113281 2.65625 -10.40625 C 2.414062 -9.707031 2.195312 -9.007812 2 -8.3125 C 1.789062 -7.59375 1.613281 -6.925781 1.46875 -6.3125 C 1.320312 -5.707031 1.203125 -5.132812 1.109375 -4.59375 C 1.035156 -4.300781 1 -4.023438 1 -3.765625 C 1 -3.503906 1.015625 -3.265625 1.046875 -3.046875 C 1.066406 -2.566406 1.335938 -2.269531 1.859375 -2.15625 C 2.796875 -1.9375 3.441406 -2.519531 3.796875 -3.90625 Z M 7.84375 -16.171875 L 8.921875 -13.078125 C 9.117188 -12.535156 9.300781 -11.988281 9.46875 -11.4375 C 9.632812 -10.882812 9.800781 -10.332031 9.96875 -9.78125 C 9.582031 -9.78125 9.203125 -9.78125 8.828125 -9.78125 C 8.460938 -9.78125 8.101562 -9.796875 7.75 -9.828125 L 5.515625 -9.828125 C 5.679688 -10.367188 5.851562 -10.910156 6.03125 -11.453125 C 6.21875 -11.992188 6.414062 -12.523438 6.625 -13.046875 C 6.820312 -13.597656 7.019531 -14.128906 7.21875 -14.640625 C 7.425781 -15.148438 7.632812 -15.660156 7.84375 -16.171875 Z M 7.84375 -16.171875 "/></g></g></g></svg>