<svg xmlns="http://www.w3.org/2000/svg" xmlns:xlink="http://www.w3.org/1999/xlink" width="100" zoomAndPan="magnify" viewBox="0 0 75 74.999997" height="100" preserveAspectRatio="xMidYMid meet" version="1.0"><defs><g/><clipPath id="96f82195b0"><path d="M 19.273438 1.351562 L 55.75 1.351562 L 55.75 8.257812 L 19.273438 8.257812 Z M 19.273438 1.351562 " clip-rule="nonzero"/></clipPath><clipPath id="e392f38d6a"><path d="M 22.726562 1.351562 L 52.273438 1.351562 C 53.1875 1.351562 54.066406 1.714844 54.714844 2.363281 C 55.359375 3.007812 55.726562 3.886719 55.726562 4.804688 C 55.726562 5.71875 55.359375 6.597656 54.714844 7.246094 C 54.066406 7.890625 53.1875 8.257812 52.273438 8.257812 L 22.726562 8.257812 C 21.8125 8.257812 20.933594 7.890625 20.285156 7.246094 C 19.640625 6.597656 19.273438 5.71875 19.273438 4.804688 C 19.273438 3.886719 19.640625 3.007812 20.285156 2.363281 C 20.933594 1.714844 21.8125 1.351562 22.726562 1.351562 Z M 22.726562 1.351562 " clip-rule="nonzero"/></clipPath></defs><rect x="-7.5" width="90" fill="#ffffff" y="-7.5" height="89.999996" fill-opacity="1"/><rect x="-7.5" width="90" fill="#ffffff" y="-7.5" height="89.999996" fill-opacity="1"/><g clip-path="url(#96f82195b0)"><g clip-path="url(#e392f38d6a)"><path fill="#38b6ff" d="M 19.273438 1.351562 L 55.722656 1.351562 L 55.722656 8.257812 L 19.273438 8.257812 Z M 19.273438 1.351562 " fill-opacity="1" fill-rule="nonzero"/></g></g><path fill="#e6e9ed" d="M 3.027344 69.375 C 3.027344 69.984375 3.527344 70.488281 4.140625 70.488281 L 70.9375 70.488281 C 71.546875 70.488281 72.050781 69.984375 72.050781 69.375 L 72.050781 14.824219 L 3.027344 14.824219 Z M 3.027344 69.375 " fill-opacity="1" fill-rule="nonzero"/><path fill="#ccd1d9" d="M 72.050781 12.597656 L 72.050781 14.824219 L 3.027344 14.824219 L 3.027344 12.597656 C 3.027344 11.363281 4.015625 10.371094 5.253906 10.371094 L 69.824219 10.371094 C 71.058594 10.371094 72.050781 11.363281 72.050781 12.597656 Z M 72.050781 12.597656 " fill-opacity="1" fill-rule="nonzero"/><path fill="#e6e9ed" d="M 6.371094 11.480469 L 6.359375 11.480469 C 5.746094 11.480469 5.253906 11.976562 5.253906 12.59375 C 5.253906 13.207031 5.757812 13.707031 6.371094 13.707031 C 6.988281 13.707031 7.484375 13.207031 7.484375 12.59375 C 7.484375 11.976562 6.988281 11.480469 6.371094 11.480469 Z M 6.371094 11.480469 " fill-opacity="1" fill-rule="nonzero"/><path fill="#e6e9ed" d="M 9.710938 11.480469 L 9.699219 11.480469 C 9.085938 11.480469 8.59375 11.976562 8.59375 12.59375 C 8.59375 13.207031 9.09375 13.707031 9.710938 13.707031 C 10.328125 13.707031 10.824219 13.207031 10.824219 12.59375 C 10.824219 11.976562 10.328125 11.480469 9.710938 11.480469 Z M 9.710938 11.480469 " fill-opacity="1" fill-rule="nonzero"/><path fill="#e6e9ed" d="M 13.054688 11.480469 L 13.042969 11.480469 C 12.429688 11.480469 11.933594 11.976562 11.933594 12.59375 C 11.933594 13.207031 12.441406 13.707031 13.054688 13.707031 C 13.667969 13.707031 14.167969 13.207031 14.167969 12.59375 C 14.167969 11.976562 13.667969 11.480469 13.054688 11.480469 Z M 13.054688 11.480469 " fill-opacity="1" fill-rule="nonzero"/><path fill="#f5f7fa" d="M 7.480469 23.449219 L 67.597656 23.449219 L 67.597656 61.859375 L 7.480469 61.859375 Z M 7.480469 23.449219 " fill-opacity="1" fill-rule="nonzero"/><path fill="#ffffff" d="M 7.480469 60.46875 C 7.480469 59.855469 7.980469 59.355469 8.59375 59.355469 L 66.484375 59.355469 C 67.09375 59.355469 67.597656 59.855469 67.597656 60.46875 L 67.597656 64.921875 C 67.597656 65.53125 67.09375 66.035156 66.484375 66.035156 L 8.59375 66.035156 C 7.980469 66.035156 7.480469 65.53125 7.480469 64.921875 Z M 7.480469 60.46875 " fill-opacity="1" fill-rule="nonzero"/><path fill="#ffce54" d="M 18.613281 34.863281 C 19.847656 34.863281 20.839844 35.863281 20.839844 37.089844 C 20.839844 38.324219 19.847656 39.316406 18.613281 39.316406 C 17.386719 39.316406 16.386719 38.324219 16.386719 37.089844 C 16.386719 35.863281 17.386719 34.863281 18.613281 34.863281 Z M 18.613281 34.863281 " fill-opacity="1" fill-rule="nonzero"/><path fill="#545c66" d="M 17.5 47.109375 L 20.316406 51.039062 L 17.5 54.902344 L 11.933594 54.902344 Z M 17.5 47.109375 " fill-opacity="1" fill-rule="nonzero"/><path fill="#656d78" d="M 26.40625 42.65625 L 35.3125 54.902344 L 17.5 54.902344 L 20.316406 51.039062 Z M 26.40625 42.65625 " fill-opacity="1" fill-rule="nonzero"/><path fill="#5d9cec" d="M 35.3125 30.410156 L 35.3125 54.902344 L 26.40625 42.65625 L 20.316406 51.039062 L 17.5 47.109375 L 11.933594 54.902344 L 11.933594 30.410156 Z M 20.839844 37.089844 C 20.839844 35.863281 19.847656 34.863281 18.613281 34.863281 C 17.386719 34.863281 16.386719 35.863281 16.386719 37.089844 C 16.386719 38.324219 17.386719 39.316406 18.613281 39.316406 C 19.847656 39.316406 20.839844 38.324219 20.839844 37.089844 Z M 20.839844 37.089844 " fill-opacity="1" fill-rule="nonzero"/><path fill="#ffffff" d="M 7.480469 20.390625 C 7.480469 19.777344 7.980469 19.277344 8.59375 19.277344 L 66.484375 19.277344 C 67.09375 19.277344 67.597656 19.777344 67.597656 20.390625 L 67.597656 24.84375 C 67.597656 25.453125 67.09375 25.957031 66.484375 25.957031 L 8.59375 25.957031 C 7.980469 25.957031 7.480469 25.453125 7.480469 24.84375 Z M 7.480469 20.390625 " fill-opacity="1" fill-rule="nonzero"/><path fill="#e6e9ed" d="M 30.859375 23.726562 L 11.933594 23.726562 C 11.316406 23.726562 10.820312 23.230469 10.820312 22.613281 C 10.820312 21.996094 11.316406 21.5 11.933594 21.5 L 30.859375 21.5 C 31.472656 21.5 31.972656 21.996094 31.972656 22.613281 C 31.972656 23.230469 31.472656 23.726562 30.859375 23.726562 Z M 30.859375 23.726562 " fill-opacity="1" fill-rule="nonzero"/><path fill="#e6e9ed" d="M 63.144531 23.726562 L 60.917969 23.726562 C 60.300781 23.726562 59.804688 23.230469 59.804688 22.613281 C 59.804688 21.996094 60.300781 21.5 60.917969 21.5 L 63.144531 21.5 C 63.757812 21.5 64.257812 21.996094 64.257812 22.613281 C 64.257812 23.230469 63.757812 23.726562 63.144531 23.726562 Z M 63.144531 23.726562 " fill-opacity="1" fill-rule="nonzero"/><path fill="#e6e9ed" d="M 30.859375 63.800781 L 11.933594 63.800781 C 11.316406 63.800781 10.820312 63.304688 10.820312 62.6875 C 10.820312 62.074219 11.316406 61.574219 11.933594 61.574219 L 30.859375 61.574219 C 31.472656 61.574219 31.972656 62.074219 31.972656 62.6875 C 31.972656 63.304688 31.472656 63.800781 30.859375 63.800781 Z M 30.859375 63.800781 " fill-opacity="1" fill-rule="nonzero"/><path fill="#e6e9ed" d="M 63.144531 63.800781 L 60.917969 63.800781 C 60.300781 63.800781 59.804688 63.304688 59.804688 62.6875 C 59.804688 62.074219 60.300781 61.574219 60.917969 61.574219 L 63.144531 61.574219 C 63.757812 61.574219 64.257812 62.074219 64.257812 62.6875 C 64.257812 63.304688 63.757812 63.800781 63.144531 63.800781 Z M 63.144531 63.800781 " fill-opacity="1" fill-rule="nonzero"/><path fill="#e6e9ed" d="M 62.03125 64.914062 C 61.414062 64.914062 60.917969 64.417969 60.917969 63.800781 L 60.917969 61.574219 C 60.917969 60.960938 61.414062 60.460938 62.03125 60.460938 C 62.644531 60.460938 63.144531 60.960938 63.144531 61.574219 L 63.144531 63.800781 C 63.144531 64.417969 62.644531 64.914062 62.03125 64.914062 Z M 62.03125 64.914062 " fill-opacity="1" fill-rule="nonzero"/><path fill="#ccd1d9" d="M 63.148438 34.847656 L 40.882812 34.847656 C 40.265625 34.847656 39.769531 34.351562 39.769531 33.734375 C 39.769531 33.121094 40.265625 32.621094 40.882812 32.621094 L 63.148438 32.621094 C 63.761719 32.621094 64.261719 33.121094 64.261719 33.734375 C 64.261719 34.351562 63.761719 34.847656 63.148438 34.847656 Z M 63.148438 34.847656 " fill-opacity="1" fill-rule="nonzero"/><path fill="#ccd1d9" d="M 63.148438 38.1875 L 40.882812 38.1875 C 40.265625 38.1875 39.769531 37.691406 39.769531 37.074219 C 39.769531 36.460938 40.265625 35.960938 40.882812 35.960938 L 63.148438 35.960938 C 63.761719 35.960938 64.261719 36.460938 64.261719 37.074219 C 64.261719 37.691406 63.761719 38.1875 63.148438 38.1875 Z M 63.148438 38.1875 " fill-opacity="1" fill-rule="nonzero"/><path fill="#ccd1d9" d="M 63.148438 41.527344 L 40.882812 41.527344 C 40.265625 41.527344 39.769531 41.03125 39.769531 40.414062 C 39.769531 39.800781 40.265625 39.300781 40.882812 39.300781 L 63.148438 39.300781 C 63.761719 39.300781 64.261719 39.800781 64.261719 40.414062 C 64.261719 41.03125 63.761719 41.527344 63.148438 41.527344 Z M 63.148438 41.527344 " fill-opacity="1" fill-rule="nonzero"/><path fill="#ccd1d9" d="M 52.003906 44.867188 L 40.882812 44.867188 C 40.265625 44.867188 39.769531 44.371094 39.769531 43.753906 C 39.769531 43.140625 40.265625 42.640625 40.882812 42.640625 L 52.003906 42.640625 C 52.617188 42.640625 53.117188 43.140625 53.117188 43.753906 C 53.117188 44.371094 52.617188 44.867188 52.003906 44.867188 Z M 52.003906 44.867188 " fill-opacity="1" fill-rule="nonzero"/><path fill="#4a89dc" d="M 52.015625 48.214844 L 40.882812 48.214844 C 40.265625 48.214844 39.769531 48.710938 39.769531 49.328125 L 39.769531 51.554688 C 39.769531 52.167969 40.265625 52.667969 40.882812 52.667969 L 52.015625 52.667969 C 52.628906 52.667969 53.128906 52.167969 53.128906 51.554688 L 53.128906 49.328125 C 53.128906 48.710938 52.628906 48.214844 52.015625 48.214844 Z M 52.015625 48.214844 " fill-opacity="1" fill-rule="nonzero"/><path fill="#5d9cec" d="M 52.015625 47.101562 L 40.882812 47.101562 C 40.265625 47.101562 39.769531 47.597656 39.769531 48.214844 L 39.769531 50.4375 C 39.769531 51.054688 40.265625 51.550781 40.882812 51.550781 L 52.015625 51.550781 C 52.628906 51.550781 53.128906 51.054688 53.128906 50.4375 L 53.128906 48.214844 C 53.128906 47.597656 52.628906 47.101562 52.015625 47.101562 Z M 52.015625 47.101562 " fill-opacity="1" fill-rule="nonzero"/><path fill="#5d9cec" d="M 35.3125 29.300781 L 11.929688 29.300781 C 11.3125 29.300781 10.816406 29.796875 10.816406 30.414062 L 10.816406 54.902344 C 10.816406 55.519531 11.3125 56.015625 11.929688 56.015625 L 35.3125 56.015625 C 35.929688 56.015625 36.425781 55.519531 36.425781 54.902344 L 36.425781 30.414062 C 36.425781 29.796875 35.929688 29.300781 35.3125 29.300781 Z M 35.3125 29.300781 " fill-opacity="1" fill-rule="nonzero"/><path fill="#ffce54" d="M 18.617188 34.3125 C 20.164062 34.3125 21.402344 35.5625 21.402344 37.09375 C 21.402344 38.625 20.164062 39.878906 18.617188 39.878906 C 17.085938 39.878906 15.835938 38.625 15.835938 37.09375 C 15.835938 35.5625 17.085938 34.3125 18.617188 34.3125 Z M 18.617188 34.3125 " fill-opacity="1" fill-rule="nonzero"/><path fill="#656d78" d="M 27.304688 43.113281 C 27.269531 43.0625 27.21875 43.035156 27.175781 42.996094 C 27.136719 42.953125 27.109375 42.902344 27.058594 42.867188 C 27.046875 42.855469 27.03125 42.855469 27.019531 42.847656 C 26.949219 42.800781 26.871094 42.773438 26.796875 42.746094 C 26.734375 42.722656 26.679688 42.691406 26.621094 42.679688 C 26.550781 42.664062 26.476562 42.671875 26.40625 42.671875 C 26.335938 42.671875 26.265625 42.664062 26.195312 42.679688 C 26.132812 42.691406 26.078125 42.722656 26.019531 42.746094 C 25.941406 42.773438 25.863281 42.800781 25.792969 42.847656 C 25.78125 42.855469 25.765625 42.855469 25.753906 42.867188 C 25.703125 42.902344 25.675781 42.953125 25.636719 42.996094 C 25.59375 43.035156 25.542969 43.0625 25.507812 43.113281 L 16.125 56.015625 L 35.316406 56.015625 C 35.734375 56.015625 36.082031 55.777344 36.273438 55.441406 Z M 27.304688 43.113281 " fill-opacity="1" fill-rule="nonzero"/><path fill="#545c66" d="M 20.3125 50.25 L 18.402344 47.574219 C 18.367188 47.523438 18.316406 47.492188 18.269531 47.449219 C 18.226562 47.40625 18.199219 47.351562 18.144531 47.316406 C 18.132812 47.308594 18.121094 47.308594 18.109375 47.300781 C 18.039062 47.253906 17.964844 47.230469 17.890625 47.203125 C 17.828125 47.179688 17.773438 47.144531 17.710938 47.132812 C 17.636719 47.117188 17.5625 47.125 17.484375 47.128906 C 17.417969 47.128906 17.355469 47.121094 17.289062 47.132812 C 17.222656 47.148438 17.160156 47.179688 17.09375 47.207031 C 17.023438 47.234375 16.953125 47.253906 16.886719 47.296875 C 16.875 47.304688 16.863281 47.304688 16.851562 47.316406 C 16.796875 47.351562 16.769531 47.40625 16.722656 47.453125 C 16.679688 47.496094 16.628906 47.523438 16.59375 47.574219 L 10.972656 55.441406 C 11.167969 55.777344 11.511719 56.015625 11.929688 56.015625 L 16.121094 56.015625 Z M 20.3125 50.25 " fill-opacity="1" fill-rule="nonzero"/><g fill="#ffffff" fill-opacity="1"><g transform="translate(28.866228, 6.10523)"><g><path d="M 3.109375 -2.484375 C 3.109375 -2.265625 3.054688 -2.066406 2.953125 -1.890625 C 2.859375 -1.722656 2.710938 -1.582031 2.515625 -1.46875 C 2.316406 -1.363281 2.066406 -1.3125 1.765625 -1.3125 L 1.21875 -1.3125 L 1.21875 0 L 0.328125 0 L 0.328125 -3.65625 L 1.765625 -3.65625 C 2.054688 -3.65625 2.300781 -3.601562 2.5 -3.5 C 2.695312 -3.394531 2.847656 -3.253906 2.953125 -3.078125 C 3.054688 -2.898438 3.109375 -2.703125 3.109375 -2.484375 Z M 1.703125 -2.015625 C 1.867188 -2.015625 1.992188 -2.054688 2.078125 -2.140625 C 2.160156 -2.222656 2.203125 -2.335938 2.203125 -2.484375 C 2.203125 -2.617188 2.160156 -2.726562 2.078125 -2.8125 C 1.992188 -2.894531 1.867188 -2.9375 1.703125 -2.9375 L 1.21875 -2.9375 L 1.21875 -2.015625 Z M 1.703125 -2.015625 "/></g></g></g><g fill="#ffffff" fill-opacity="1"><g transform="translate(32.116409, 6.10523)"><g><path d="M 0.140625 -1.453125 C 0.140625 -1.753906 0.195312 -2.015625 0.3125 -2.234375 C 0.425781 -2.460938 0.578125 -2.632812 0.765625 -2.75 C 0.960938 -2.875 1.179688 -2.9375 1.421875 -2.9375 C 1.628906 -2.9375 1.8125 -2.894531 1.96875 -2.8125 C 2.125 -2.726562 2.242188 -2.625 2.328125 -2.5 L 2.328125 -2.90625 L 3.203125 -2.90625 L 3.203125 0 L 2.328125 0 L 2.328125 -0.40625 C 2.234375 -0.269531 2.109375 -0.160156 1.953125 -0.078125 C 1.804688 0.00390625 1.628906 0.046875 1.421875 0.046875 C 1.179688 0.046875 0.960938 -0.015625 0.765625 -0.140625 C 0.578125 -0.265625 0.425781 -0.441406 0.3125 -0.671875 C 0.195312 -0.898438 0.140625 -1.160156 0.140625 -1.453125 Z M 2.328125 -1.453125 C 2.328125 -1.671875 2.265625 -1.84375 2.140625 -1.96875 C 2.015625 -2.101562 1.863281 -2.171875 1.6875 -2.171875 C 1.507812 -2.171875 1.359375 -2.109375 1.234375 -1.984375 C 1.109375 -1.859375 1.046875 -1.679688 1.046875 -1.453125 C 1.046875 -1.234375 1.109375 -1.054688 1.234375 -0.921875 C 1.359375 -0.796875 1.507812 -0.734375 1.6875 -0.734375 C 1.863281 -0.734375 2.015625 -0.796875 2.140625 -0.921875 C 2.265625 -1.054688 2.328125 -1.234375 2.328125 -1.453125 Z M 2.328125 -1.453125 "/></g></g></g><g fill="#ffffff" fill-opacity="1"><g transform="translate(35.653063, 6.10523)"><g><path d="M 1.5 0.046875 C 1.25 0.046875 1.023438 0.00390625 0.828125 -0.078125 C 0.628906 -0.171875 0.472656 -0.289062 0.359375 -0.4375 C 0.242188 -0.59375 0.179688 -0.765625 0.171875 -0.953125 L 1.046875 -0.953125 C 1.054688 -0.847656 1.101562 -0.765625 1.1875 -0.703125 C 1.269531 -0.640625 1.375 -0.609375 1.5 -0.609375 C 1.601562 -0.609375 1.6875 -0.628906 1.75 -0.671875 C 1.8125 -0.722656 1.84375 -0.78125 1.84375 -0.84375 C 1.84375 -0.925781 1.796875 -0.988281 1.703125 -1.03125 C 1.617188 -1.070312 1.484375 -1.117188 1.296875 -1.171875 C 1.085938 -1.210938 0.910156 -1.257812 0.765625 -1.3125 C 0.628906 -1.375 0.507812 -1.460938 0.40625 -1.578125 C 0.3125 -1.691406 0.265625 -1.847656 0.265625 -2.046875 C 0.265625 -2.210938 0.304688 -2.363281 0.390625 -2.5 C 0.484375 -2.632812 0.617188 -2.738281 0.796875 -2.8125 C 0.984375 -2.894531 1.195312 -2.9375 1.4375 -2.9375 C 1.800781 -2.9375 2.085938 -2.847656 2.296875 -2.671875 C 2.503906 -2.492188 2.625 -2.253906 2.65625 -1.953125 L 1.84375 -1.953125 C 1.832031 -2.054688 1.785156 -2.132812 1.703125 -2.1875 C 1.628906 -2.25 1.535156 -2.28125 1.421875 -2.28125 C 1.316406 -2.28125 1.234375 -2.257812 1.171875 -2.21875 C 1.117188 -2.1875 1.09375 -2.132812 1.09375 -2.0625 C 1.09375 -1.976562 1.132812 -1.914062 1.21875 -1.875 C 1.3125 -1.832031 1.453125 -1.789062 1.640625 -1.75 C 1.859375 -1.695312 2.035156 -1.640625 2.171875 -1.578125 C 2.304688 -1.523438 2.421875 -1.4375 2.515625 -1.3125 C 2.617188 -1.195312 2.671875 -1.039062 2.671875 -0.84375 C 2.671875 -0.675781 2.625 -0.523438 2.53125 -0.390625 C 2.4375 -0.253906 2.300781 -0.144531 2.125 -0.0625 C 1.945312 0.0078125 1.738281 0.046875 1.5 0.046875 Z M 1.5 0.046875 "/></g></g></g><g fill="#ffffff" fill-opacity="1"><g transform="translate(38.559474, 6.10523)"><g><path d="M 1.640625 0.046875 C 1.359375 0.046875 1.101562 -0.015625 0.875 -0.140625 C 0.644531 -0.265625 0.460938 -0.4375 0.328125 -0.65625 C 0.203125 -0.882812 0.140625 -1.148438 0.140625 -1.453125 C 0.140625 -1.753906 0.207031 -2.015625 0.34375 -2.234375 C 0.476562 -2.460938 0.660156 -2.632812 0.890625 -2.75 C 1.117188 -2.875 1.375 -2.9375 1.65625 -2.9375 C 1.9375 -2.9375 2.191406 -2.875 2.421875 -2.75 C 2.648438 -2.632812 2.828125 -2.460938 2.953125 -2.234375 C 3.085938 -2.015625 3.15625 -1.753906 3.15625 -1.453125 C 3.15625 -1.148438 3.085938 -0.882812 2.953125 -0.65625 C 2.828125 -0.4375 2.648438 -0.265625 2.421875 -0.140625 C 2.191406 -0.015625 1.929688 0.046875 1.640625 0.046875 Z M 1.640625 -0.734375 C 1.816406 -0.734375 1.960938 -0.796875 2.078125 -0.921875 C 2.203125 -1.046875 2.265625 -1.222656 2.265625 -1.453125 C 2.265625 -1.679688 2.203125 -1.859375 2.078125 -1.984375 C 1.960938 -2.109375 1.820312 -2.171875 1.65625 -2.171875 C 1.476562 -2.171875 1.332031 -2.109375 1.21875 -1.984375 C 1.101562 -1.867188 1.046875 -1.691406 1.046875 -1.453125 C 1.046875 -1.222656 1.101562 -1.046875 1.21875 -0.921875 C 1.332031 -0.796875 1.472656 -0.734375 1.640625 -0.734375 Z M 1.640625 -0.734375 "/></g></g></g><g fill="#ffffff" fill-opacity="1"><g transform="translate(41.877369, 6.10523)"><g/></g></g><g fill="#ffffff" fill-opacity="1"><g transform="translate(42.981598, 6.10523)"><g><path d="M 0.265625 -2.71875 C 0.273438 -3.09375 0.394531 -3.378906 0.625 -3.578125 C 0.851562 -3.785156 1.164062 -3.890625 1.5625 -3.890625 C 1.820312 -3.890625 2.046875 -3.84375 2.234375 -3.75 C 2.421875 -3.65625 2.5625 -3.53125 2.65625 -3.375 C 2.75 -3.21875 2.796875 -3.046875 2.796875 -2.859375 C 2.796875 -2.628906 2.738281 -2.441406 2.625 -2.296875 C 2.507812 -2.148438 2.375 -2.050781 2.21875 -2 L 2.21875 -1.984375 C 2.414062 -1.921875 2.570312 -1.8125 2.6875 -1.65625 C 2.800781 -1.5 2.859375 -1.300781 2.859375 -1.0625 C 2.859375 -0.851562 2.804688 -0.664062 2.703125 -0.5 C 2.609375 -0.332031 2.46875 -0.203125 2.28125 -0.109375 C 2.09375 -0.015625 1.867188 0.03125 1.609375 0.03125 C 1.191406 0.03125 0.859375 -0.0664062 0.609375 -0.265625 C 0.359375 -0.472656 0.226562 -0.785156 0.21875 -1.203125 L 1.078125 -1.203125 C 1.085938 -1.046875 1.132812 -0.921875 1.21875 -0.828125 C 1.300781 -0.742188 1.421875 -0.703125 1.578125 -0.703125 C 1.710938 -0.703125 1.816406 -0.738281 1.890625 -0.8125 C 1.960938 -0.894531 2 -1.003906 2 -1.140625 C 2 -1.304688 1.945312 -1.425781 1.84375 -1.5 C 1.738281 -1.570312 1.570312 -1.609375 1.34375 -1.609375 L 1.171875 -1.609375 L 1.171875 -2.328125 L 1.34375 -2.328125 C 1.519531 -2.328125 1.660156 -2.359375 1.765625 -2.421875 C 1.878906 -2.484375 1.9375 -2.59375 1.9375 -2.75 C 1.9375 -2.875 1.898438 -2.96875 1.828125 -3.03125 C 1.753906 -3.101562 1.660156 -3.140625 1.546875 -3.140625 C 1.410156 -3.140625 1.3125 -3.097656 1.25 -3.015625 C 1.1875 -2.941406 1.148438 -2.84375 1.140625 -2.71875 Z M 0.265625 -2.71875 "/></g></g></g></svg>